<svg xmlns="http://www.w3.org/2000/svg" viewBox="0 0 48 48">
  <!-- 飞书Logo - 三色渐变飞鸟 -->
  <defs>
    <linearGradient id="feishuGrad" x1="0%" y1="0%" x2="100%" y2="100%">
      <stop offset="0%" style="stop-color:#00C3F5"/>
      <stop offset="50%" style="stop-color:#4285FF"/>
      <stop offset="100%" style="stop-color:#2A52BE"/>
    </linearGradient>
  </defs>
  <!-- 飞鸟形状 -->
  <path fill="url(#feishuGrad)" d="M24 4C15.163 4 8 11.163 8 20c0 8.837 7.163 16 16 16 8.837 0 16-7.163 16-16 0-8.837-7.163-16-16-16zm0 28c-6.627 0-12-5.373-12-12S17.373 8 24 8s12 5.373 12 12-5.373 12-12 12z"/>
  <path fill="url(#feishuGrad)" d="M24 12c-4.418 0-8 3.582-8 8s3.582 8 8 8 8-3.582 8-8-3.582-8-8-8zm0 12c-2.209 0-4-1.791-4-4s1.791-4 4-4 4 1.791 4 4-1.791 4-4 4z"/>
  <circle fill="url(#feishuGrad)" cx="24" cy="20" r="2"/>
</svg>
