<svg xmlns="http://www.w3.org/2000/svg" viewBox="0 0 48 48">
  <rect width="48" height="48" rx="8" fill="#4285FF"/>
  <path fill="#fff" d="M24 8c-8.837 0-16 7.163-16 16s7.163 16 16 16 16-7.163 16-16S32.837 8 24 8zm0 28c-6.627 0-12-5.373-12-12s5.373-12 12-12 12 5.373 12 12-5.373 12-12 12z"/>
  <path fill="#fff" d="M24 14c-5.523 0-10 4.477-10 10s4.477 10 10 10 10-4.477 10-10S29.523 14 24 14zm0 16c-3.314 0-6-2.686-6-6s2.686-6 6-6 6 2.686 6 6-2.686 6-6 6z"/>
  <circle fill="#fff" cx="24" cy="24" r="3"/>
</svg>
