<svg xmlns="http://www.w3.org/2000/svg" viewBox="0 0 24 24"><path fill="#25D366" d="M17.498 14.382c-.301-.15-1.767-.867-2.03-.966-.266-.1-.447-.149-.67.15-.198.297-.77.965-.94 1.164-.174.2-.348.198-.644.075-.3-.15-1.255-.463-2.39-1.475-.883-.788-1.48-1.761-1.653-2.059-.174-.298-.02-.458.13-.606.174-.15.348-.397.522-.595.174-.174.198-.249.298-.348.298-.15.595-.298.893-.447.174-.099.298-.174.447-.273.174-.099.348-.05.595.174l.05.05c.272.396.545.793.817 1.164.298.397.595.793.867 1.164.124.15.223.273.348.42.198.149.42.298.664.446.15.075.27.149.37.224.124.124.174.273.274.42l.05.05c.05.198-.084.99-.198 1.372-.173.495-.445.892-.743 1.164-.372.347-.817.694-1.613 1.164-.42.248-.926.42-1.38.595-.149.05-.372.124-.53.174-.198.05-.446.124-.67.198-.198.075-.347.174-.495.297-.15.124-.224.248-.298.347l-.05.05c-.075.174-.15.372-.175.495 0 .198.05.42.124.645 0 0 .05.05.075.124.124.495.347 1.015.546 1.37.174.347.347.595.595.793.224.174.496.347.82.52.15.075.298.124.447.174.174.05.347.075.52.124.198.05.42.099.67.149.248.05.52.075.817.075.42 0 .84-.124 1.243-.372.42-.272.793-.645 1.093-1.093.347-.52.595-1.093.743-1.768.15-.744-.124-1.693-.495-2.356-.372-.673-.818-1.24-1.49-1.733-.198-.149-.372-.273-.52-.372l-.124-.074-.05-.05.05-.05.124-.124c.124-.124.248-.248.348-.372.124-.149.223-.297.298-.447.124-.198.174-.42.174-.644 0-.273-.05-.546-.15-.793 0 0-.05-.05-.074-.124-.025-.074-.075-.149-.124-.223-.05-.124-.124-.223-.2-.297-.074-.099-.173-.198-.272-.297-.124-.124-.248-.223-.42-.347l-.124-.099c-.124-.099-.224-.173-.323-.248l-.124-.074c-.099-.05-.198-.099-.298-.149l-.124-.05c-.074-.025-.15-.05-.224-.074l-.05-.025-.025-.025-.025-.025-.124-.05-.2-.074-.272-.099c-.099-.025-.198-.05-.298-.074-.124-.025-.248-.025-.372-.025-.2 0-.42.025-.645.074-.224.05-.447.149-.67.297-.224.149-.42.347-.547.595-.124.272-.175.595-.15.942.025.347.124.718.273 1.093.124.347.298.718.547 1.093.224.347.496.718.844 1.093.348.372.768.744 1.294 1.093.52.347 1.12.668 1.817.942.42.173.868.32 1.34.42.496.124 1.04.173 1.617.124.595-.05 1.24-.173 1.888-.42.348-.124.695-.297 1.04-.546.348-.248.668-.546.96-.893.075-.074.174-.173.248-.272l.05-.05c.15-.173.273-.347.348-.52.124-.223.2-.495.224-.767.025-.347-.025-.718-.15-1.093z"/></svg>
